<?xml version="1.0" standalone="no"?>
<!DOCTYPE svg PUBLIC "-//W3C//DTD SVG 20010904//EN"
 "http://www.w3.org/TR/2001/REC-SVG-20010904/DTD/svg10.dtd">
<svg version="1.0" xmlns="http://www.w3.org/2000/svg"
 width="352.000000pt" height="352.000000pt" viewBox="0 0 352.000000 352.000000"
 preserveAspectRatio="xMidYMid meet">
<metadata>
Created by potrace 1.11, written by Peter Selinger 2001-2013
</metadata>
<g transform="translate(0.000000,352.000000) scale(0.100000,-0.100000)"
fill="#000000" stroke="none">
<path d="M0 1760 l0 -1760 1760 0 1760 0 0 1760 0 1760 -1760 0 -1760 0 0
-1760z m1834 986 c198 -45 336 -171 390 -355 18 -62 21 -193 5 -261 -17 -76
-68 -165 -125 -222 -30 -29 -54 -55 -54 -58 0 -3 30 -21 68 -40 83 -42 177
-134 219 -215 49 -94 66 -174 60 -285 -5 -116 -32 -200 -94 -292 -58 -88 -129
-150 -228 -198 -141 -70 -160 -73 -538 -78 l-339 -4 -24 23 -24 22 0 971 0
970 23 24 22 24 285 -5 c210 -4 303 -9 354 -21z"/>
<path d="M1420 2225 l0 -278 138 6 c218 9 309 49 369 165 55 106 43 224 -29
300 -57 58 -121 75 -310 80 l-168 4 0 -277z"/>
<path d="M1420 1345 l0 -335 168 0 c257 1 358 26 441 109 63 63 86 122 86 221
0 77 -3 90 -31 140 -83 146 -226 200 -536 200 l-128 0 0 -335z"/>
</g>
</svg>
